<svg xmlns="http://www.w3.org/2000/svg" viewBox="0 0 750 500"><g id="freepik--background-complete--inject-2"><path d="M291.7,185.64a63.27,63.27,0,0,0-9.05,21.91l-12.24,1.16v23.7l12.24,1.15a63.24,63.24,0,0,0,9.05,21.92l-7.82,9.44,16.76,16.76,9.44-7.81a63.37,63.37,0,0,0,21.92,9l1.15,12.24h23.71L358,282.91a63.57,63.57,0,0,0,21.92-9l9.44,7.81,16.76-16.76-7.82-9.44a63.24,63.24,0,0,0,9.05-21.92l12.24-1.15v-23.7l-12.24-1.16a63.27,63.27,0,0,0-9.05-21.91l7.82-9.45-16.76-16.76-9.44,7.82A63.59,63.59,0,0,0,358,158.2L356.86,146H333.15L332,158.21a63.37,63.37,0,0,0-21.92,9l-9.44-7.82-16.76,16.76Zm76,12.23a32.09,32.09,0,1,1-45.38,0A32.1,32.1,0,0,1,367.7,197.87Z" style="fill:#e0e0e0"></path><path d="M183.55,144.19a35.88,35.88,0,0,0-5.09,12.34l-6.88.65v13.34l6.88.65a35.75,35.75,0,0,0,5.09,12.33l-4.39,5.32,9.43,9.43,5.31-4.4a35.61,35.61,0,0,0,12.34,5.09l.65,6.89h13.34l.65-6.89a35.64,35.64,0,0,0,12.33-5.09l5.31,4.4,9.44-9.43-4.4-5.32a35.56,35.56,0,0,0,5.09-12.33l6.89-.65V157.18l-6.89-.65a35.75,35.75,0,0,0-5.09-12.33l4.4-5.32-9.44-9.43-5.31,4.4a35.45,35.45,0,0,0-12.33-5.09l-.65-6.89H206.89l-.65,6.89a35.42,35.42,0,0,0-12.34,5.09l-5.31-4.4-9.43,9.43Zm42.78,6.89a18.06,18.06,0,1,1-25.54,0A18.06,18.06,0,0,1,226.33,151.08Z" style="fill:#e0e0e0"></path><path d="M219.54,86.22A17.85,17.85,0,0,0,217,92.39l-3.44.32v6.67l3.44.32a17.93,17.93,0,0,0,2.54,6.17l-2.2,2.65,4.72,4.72,2.66-2.2a17.8,17.8,0,0,0,6.16,2.54l.32,3.45h6.67l.33-3.45a17.88,17.88,0,0,0,6.16-2.54l2.66,2.2,4.71-4.72-2.2-2.65a17.76,17.76,0,0,0,2.55-6.17l3.44-.32V92.71l-3.44-.32a17.68,17.68,0,0,0-2.55-6.17l2.2-2.65L247,78.85l-2.66,2.2a17.69,17.69,0,0,0-6.16-2.54l-.33-3.45H231.2l-.32,3.45a17.61,17.61,0,0,0-6.16,2.54l-2.66-2.2-4.72,4.72Zm21.38,3.44a9,9,0,1,1-12.76,0A9,9,0,0,1,240.92,89.66Z" style="fill:#e0e0e0"></path><rect x="112.31" y="221.81" width="50.87" height="65.36" rx="3.51" transform="translate(-46.54 31.38) rotate(-11.13)" style="fill:#e6e6e6"></rect><rect x="118.58" y="236.36" width="32.05" height="4.34" rx="1.77" transform="translate(-43.52 30.47) rotate(-11.13)" style="fill:#f0f0f0"></rect><rect x="120.72" y="247.25" width="32.05" height="4.34" rx="1.77" transform="translate(-45.58 31.09) rotate(-11.13)" style="fill:#f0f0f0"></rect><rect x="122.87" y="258.15" width="32.05" height="4.34" rx="1.77" transform="translate(-47.64 31.71) rotate(-11.13)" style="fill:#f0f0f0"></rect><rect x="125.15" y="270.5" width="16.89" height="4.34" rx="1.77" transform="translate(-50.13 30.92) rotate(-11.13)" style="fill:#f0f0f0"></rect><rect x="179.23" y="294.21" width="34.45" height="44.26" rx="3.51" transform="translate(38.89 -21.06) rotate(6.81)" style="fill:#e6e6e6"></rect><path d="M206.9,308l-18.63-2.23a1.46,1.46,0,0,1-1.28-1.63h0a1.47,1.47,0,0,1,1.63-1.29l18.63,2.23a1.46,1.46,0,0,1,1.28,1.63h0A1.47,1.47,0,0,1,206.9,308Z" style="fill:#f0f0f0"></path><path d="M206,315.43l-18.63-2.22a1.47,1.47,0,0,1-1.28-1.64h0a1.46,1.46,0,0,1,1.63-1.28l18.63,2.22a1.47,1.47,0,0,1,1.28,1.64h0A1.46,1.46,0,0,1,206,315.43Z" style="fill:#f0f0f0"></path><path d="M205.12,322.9l-18.63-2.23a1.45,1.45,0,0,1-1.28-1.63h0a1.47,1.47,0,0,1,1.63-1.29L205.47,320a1.47,1.47,0,0,1,1.28,1.63h0A1.47,1.47,0,0,1,205.12,322.9Z" style="fill:#f0f0f0"></path><path d="M194,329.15l-8.43-1a1.48,1.48,0,0,1-1.29-1.63h0a1.47,1.47,0,0,1,1.64-1.29l8.43,1a1.47,1.47,0,0,1,1.29,1.63h0A1.48,1.48,0,0,1,194,329.15Z" style="fill:#f0f0f0"></path><rect x="630.74" y="167.47" width="41.46" height="53.27" rx="3.51" transform="translate(111.22 -218.47) rotate(20.78)" style="fill:#e6e6e6"></rect><rect x="643.12" y="179.94" width="26.12" height="3.54" rx="1.47" transform="translate(107.13 -220.94) rotate(20.78)" style="fill:#f0f0f0"></rect><rect x="639.91" y="188.4" width="26.12" height="3.54" rx="1.47" transform="translate(109.92 -219.25) rotate(20.78)" style="fill:#f0f0f0"></rect><rect x="636.7" y="196.86" width="26.12" height="3.54" rx="1.47" transform="translate(112.71 -217.56) rotate(20.78)" style="fill:#f0f0f0"></rect><rect x="633.89" y="203.13" width="13.76" height="3.54" rx="1.47" transform="translate(114.35 -213.97) rotate(20.78)" style="fill:#f0f0f0"></rect><rect x="386.03" y="67.35" width="13.29" height="15.72" rx="1.57" style="fill:#e0e0e0"></rect><rect x="406.02" y="55.12" width="13.29" height="27.95" rx="1.57" style="fill:#e0e0e0"></rect><rect x="427.53" y="43.04" width="13.29" height="40.38" rx="1.57" style="fill:#e0e0e0"></rect><path d="M476.6,274.4a34.24,34.24,0,0,0-4.9,11.87l-6.63.62v12.84l6.63.62a34.24,34.24,0,0,0,4.9,11.87l-4.24,5.12,9.08,9.07,5.11-4.23a34.51,34.51,0,0,0,11.87,4.9l.63,6.63h12.83l.63-6.62a34.51,34.51,0,0,0,11.87-4.9l5.11,4.23,9.08-9.07-4.23-5.12a34.22,34.22,0,0,0,4.89-11.87l6.63-.62V286.89l-6.63-.62a34,34,0,0,0-4.9-11.87l4.24-5.11-9.08-9.08-5.11,4.23a34.51,34.51,0,0,0-11.87-4.9l-.63-6.63H499.05l-.63,6.62a34.38,34.38,0,0,0-11.86,4.9l-5.12-4.23-9.08,9.07ZM517.75,281a17.38,17.38,0,1,1-24.57,0A17.38,17.38,0,0,1,517.75,281Z" style="fill:#e0e0e0"></path><path d="M556.07,304.78a16.1,16.1,0,0,0-2.31,5.6l-3.13.29v6.06l3.13.29a16.1,16.1,0,0,0,2.31,5.6l-2,2.42,4.28,4.28,2.42-2a15.92,15.92,0,0,0,5.6,2.31l.29,3.13h6.06l.29-3.13a15.92,15.92,0,0,0,5.6-2.31l2.42,2,4.28-4.28-2-2.42a15.92,15.92,0,0,0,2.31-5.6l3.13-.29v-6.06l-3.13-.29a15.92,15.92,0,0,0-2.31-5.6l2-2.42L581,298.08l-2.42,2a16.1,16.1,0,0,0-5.6-2.31l-.29-3.13h-6.06l-.29,3.13a16.1,16.1,0,0,0-5.6,2.31l-2.42-2-4.28,4.28Zm19.42,3.12a8.2,8.2,0,1,1-11.6,0A8.21,8.21,0,0,1,575.49,307.9Z" style="fill:#e0e0e0"></path><path d="M502.21,212.6a16.26,16.26,0,0,0-2.31,5.6l-3.13.3v6.06l3.13.29a16.18,16.18,0,0,0,2.31,5.6l-2,2.41,4.28,4.29,2.42-2a16.1,16.1,0,0,0,5.6,2.31l.29,3.13h6.06l.29-3.13a16.1,16.1,0,0,0,5.6-2.31l2.42,2,4.28-4.29-2-2.41a16,16,0,0,0,2.31-5.6l3.13-.29V218.5l-3.13-.3a16.07,16.07,0,0,0-2.31-5.6l2-2.41-4.28-4.28-2.42,2a16.13,16.13,0,0,0-5.6-2.32l-.29-3.12H512.8l-.29,3.12a16.13,16.13,0,0,0-5.6,2.32l-2.42-2-4.28,4.28Zm19.42,3.13a8.2,8.2,0,1,1-11.6,0A8.21,8.21,0,0,1,521.63,215.73Z" style="fill:#f5f5f5"></path><path d="M551.6,234.84a30.25,30.25,0,0,0-4.34,10.52l-5.87.55v11.37l5.88.55a30.25,30.25,0,0,0,4.34,10.52l-3.75,4.53,8,8,4.53-3.75a30.4,30.4,0,0,0,10.51,4.34l.56,5.87h11.37l.55-5.87a30.44,30.44,0,0,0,10.52-4.34l4.53,3.75,8-8-3.75-4.53a30.64,30.64,0,0,0,4.34-10.52l5.87-.55V245.91l-5.87-.55a30.64,30.64,0,0,0-4.34-10.52l3.75-4.53-8-8L593.93,226a30.44,30.44,0,0,0-10.52-4.34l-.55-5.87H571.49l-.56,5.87A30.4,30.4,0,0,0,560.42,226l-4.53-3.75-8,8Zm36.46,5.87a15.39,15.39,0,1,1-21.77,0A15.4,15.4,0,0,1,588.06,240.71Z" style="fill:#f5f5f5"></path><path d="M146.27,76.24a26.45,26.45,0,0,0-3.79,9.18l-5.13.49v9.93l5.13.48a26.5,26.5,0,0,0,3.79,9.19l-3.28,4,7,7,4-3.28a26.26,26.26,0,0,0,9.18,3.79l.49,5.14h9.93l.48-5.12a26.52,26.52,0,0,0,9.19-3.8l4,3.28,7-7-3.28-4a26.52,26.52,0,0,0,3.8-9.19l5.12-.48V85.91l-5.13-.49a26.47,26.47,0,0,0-3.8-9.18l3.28-4-7-7-4,3.28a26.5,26.5,0,0,0-9.19-3.79l-.48-5.13h-9.93l-.49,5.13A26.45,26.45,0,0,0,154,68.53l-4-3.28-7,7Zm31.85,5.12a13.45,13.45,0,1,1-19,0A13.45,13.45,0,0,1,178.12,81.36Z" style="fill:#f5f5f5"></path><path d="M673.73,317.18H493a5.87,5.87,0,0,1-5.86-5.86V48A5.87,5.87,0,0,1,493,42.18H673.73A5.87,5.87,0,0,1,679.6,48V311.32A5.87,5.87,0,0,1,673.73,317.18ZM493,42.43A5.61,5.61,0,0,0,487.38,48V311.32a5.61,5.61,0,0,0,5.61,5.61H673.73a5.62,5.62,0,0,0,5.62-5.61V48a5.62,5.62,0,0,0-5.62-5.61Z" style="fill:#e0e0e0"></path><path d="M465.31,317.18H284.56a5.87,5.87,0,0,1-5.86-5.86V48a5.87,5.87,0,0,1,5.86-5.86H465.31A5.87,5.87,0,0,1,471.17,48V311.32A5.87,5.87,0,0,1,465.31,317.18ZM284.56,42.43A5.62,5.62,0,0,0,279,48V311.32a5.62,5.62,0,0,0,5.61,5.61H465.31a5.62,5.62,0,0,0,5.61-5.61V48a5.62,5.62,0,0,0-5.61-5.61Z" style="fill:#e0e0e0"></path><path d="M257,317.18H76.27a5.87,5.87,0,0,1-5.87-5.86V48a5.87,5.87,0,0,1,5.87-5.86H257A5.87,5.87,0,0,1,262.87,48V311.32A5.87,5.87,0,0,1,257,317.18ZM76.27,42.43A5.62,5.62,0,0,0,70.65,48V311.32a5.62,5.62,0,0,0,5.62,5.61H257a5.61,5.61,0,0,0,5.61-5.61V48A5.61,5.61,0,0,0,257,42.43Z" style="fill:#e0e0e0"></path><rect y="378.25" width="750" height="0.12" style="fill:#e0e0e0"></rect><rect x="653.63" y="407.62" width="55.73" height="0.42" style="fill:#ebebeb"></rect><rect x="495.04" y="412.19" width="14.63" height="0.42" style="fill:#ebebeb"></rect><rect x="40.64" y="394.83" width="72.67" height="0.42" style="fill:#ebebeb"></rect><rect x="128.3" y="394.83" width="10.66" height="0.42" style="fill:#ebebeb"></rect><rect x="173.59" y="401.93" width="157.61" height="0.42" style="fill:#ebebeb"></rect></g><g id="freepik--Shadow--inject-2"><path d="M629.38,460.64c0,3.39-113.89,6.13-254.38,6.13S120.62,464,120.62,460.64s113.89-6.13,254.38-6.13S629.38,457.25,629.38,460.64Z" style="fill:#f5f5f5"></path></g><g id="freepik--Chart--inject-2"><rect x="71.27" y="126.91" width="113.37" height="67.28" rx="4.09" style="fill:#3C6FE4"></rect><rect x="71.27" y="126.91" width="113.37" height="67.28" rx="4.09" style="fill:#fff;opacity:0.8"></rect><path d="M88.48,164.47l-.33-.37c.48-.44,13.62-13.41,13.75-13.54l.12-.12,13.08,6.43L128,141.72l13.14,18.93,12.56-8.2.27.42-13,8.46-13-18.79-12.7,15L102.12,151C100.68,152.46,89,164.05,88.48,164.47Z" style="fill:#263238"></path><rect x="86.28" y="170.18" width="6.14" height="13.59" style="fill:#3C6FE4"></rect><rect x="98.91" y="161.2" width="6.14" height="22.58" style="fill:#3C6FE4"></rect><rect x="111.78" y="163.47" width="6.14" height="20.31" style="fill:#3C6FE4"></rect><rect x="124.89" y="150.74" width="6.14" height="33.04" style="fill:#3C6FE4"></rect><rect x="138.13" y="168.26" width="6.14" height="15.52" style="fill:#3C6FE4"></rect><path d="M92.64,162.74a3.3,3.3,0,1,1-3.3-3.29A3.3,3.3,0,0,1,92.64,162.74Z" style="fill:#3C6FE4"></path><path d="M105.27,150.74a3.3,3.3,0,1,1-3.29-3.3A3.29,3.29,0,0,1,105.27,150.74Z" style="fill:#3C6FE4"></path><path d="M118.46,156.15a3.3,3.3,0,1,1-3.3-3.3A3.3,3.3,0,0,1,118.46,156.15Z" style="fill:#3C6FE4"></path><path d="M131.25,142.13a3.3,3.3,0,1,1-3.3-3.3A3.3,3.3,0,0,1,131.25,142.13Z" style="fill:#3C6FE4"></path><path d="M144.34,161a3.3,3.3,0,1,1-3.3-3.3A3.29,3.29,0,0,1,144.34,161Z" style="fill:#3C6FE4"></path><rect x="151.24" y="160.48" width="6.14" height="23.3" style="fill:#3C6FE4"></rect><rect x="98.91" y="161.2" width="6.14" height="22.58" style="opacity:0.30000000000000004"></rect><rect x="124.89" y="150.74" width="6.14" height="33.04" style="opacity:0.30000000000000004"></rect><rect x="151.24" y="160.48" width="6.14" height="23.3" style="opacity:0.30000000000000004"></rect><rect x="164.82" y="168.26" width="6.14" height="15.52" style="fill:#3C6FE4"></rect><rect x="160.59" y="148.52" width="0.5" height="16.1" transform="translate(-54.12 221.18) rotate(-60.96)" style="fill:#263238"></rect><path d="M157.83,152.66a3.3,3.3,0,1,1-3.29-3.3A3.29,3.29,0,0,1,157.83,152.66Z" style="fill:#3C6FE4"></path><circle cx="167.88" cy="160.48" r="3.3" style="fill:#3C6FE4"></circle></g><g id="freepik--Box--inject-2"><circle cx="651.67" cy="364.78" r="57.09" style="fill:#fff"></circle><path d="M651.67,422.38a57.6,57.6,0,1,1,57.6-57.6A57.66,57.66,0,0,1,651.67,422.38Zm0-114.19a56.6,56.6,0,1,0,56.6,56.59A56.65,56.65,0,0,0,651.67,308.19Z" style="fill:#263238"></path><rect x="623.83" y="354.36" width="56.5" height="39.9" style="fill:#3C6FE4"></rect><rect x="623.83" y="354.36" width="26.76" height="39.9" style="opacity:0.30000000000000004"></rect><polygon points="623.83 354.36 614.63 369.81 641.2 369.81 650.59 354.36 623.83 354.36" style="fill:#3C6FE4"></polygon><polygon points="650.59 354.36 660.47 369.81 688.71 369.81 680.33 354.36 650.59 354.36" style="fill:#3C6FE4"></polygon><polygon points="650.59 354.36 660.47 369.81 688.71 369.81 680.33 354.36 650.59 354.36" style="opacity:0.30000000000000004"></polygon><path d="M642.05,344.71l-6.87-9.65c-.28-.39-.93,0-.65.38l6.87,9.65c.28.38.93,0,.65-.38Z" style="fill:#263238"></path><path d="M651.46,344.43l-.27-15.73a.38.38,0,0,0-.75,0l.27,15.73a.38.38,0,0,0,.75,0Z" style="fill:#263238"></path><path d="M660.88,344.75q2.52-4.49,5-9c.23-.42-.41-.8-.65-.38l-5,9a.37.37,0,0,0,.65.37Z" style="fill:#263238"></path><path d="M666.92,333.24l-.06-.06a.42.42,0,0,0-.12-.08.4.4,0,0,0-.15,0,.32.32,0,0,0-.14,0,.25.25,0,0,0-.12.08l-.06.08a.32.32,0,0,0,0,.19v.1a.39.39,0,0,0,.1.16l.06.06a.2.2,0,0,0,.12.08.18.18,0,0,0,.14,0,.38.38,0,0,0,.27-.11l.06-.07a.41.41,0,0,0,0-.19v-.1a.42.42,0,0,0-.1-.17Z" style="fill:#263238"></path></g><g id="freepik--Arrow--inject-2"><path d="M542.78,187.22,554,240a2.94,2.94,0,0,1-4.18,3.25L510.64,224a3,3,0,0,1-1-4.53l27.95-33.53A3,3,0,0,1,542.78,187.22Z" style="fill:#3C6FE4"></path><path d="M542.78,187.22,554,240a2.94,2.94,0,0,1-4.18,3.25L510.64,224a3,3,0,0,1-1-4.53l27.95-33.53A3,3,0,0,1,542.78,187.22Z" style="opacity:0.30000000000000004"></path><path d="M545.22,231.12,540.87,201a56.93,56.93,0,1,0-63.18-42.15l-29.52,7.62a87.41,87.41,0,1,1,97.05,64.7Z" style="fill:#3C6FE4"></path><g style="opacity:0.30000000000000004"><path d="M545.22,231.12,540.87,201a56.93,56.93,0,1,0-63.18-42.15l-29.52,7.62a87.41,87.41,0,1,1,97.05,64.7Z"></path></g></g><g id="freepik--Clock--inject-2"><circle cx="536.61" cy="139.71" r="35.33" transform="translate(-17.79 150.15) rotate(-15.67)" style="fill:#3C6FE4"></circle><circle cx="536.61" cy="139.71" r="35.33" transform="translate(-17.79 150.15) rotate(-15.67)" style="opacity:0.30000000000000004"></circle><circle cx="534.75" cy="137.79" r="35.33" transform="translate(30.51 362.94) rotate(-38.51)" style="fill:#3C6FE4"></circle><circle cx="534.75" cy="137.79" r="29.35" transform="translate(141.86 525.84) rotate(-59.09)" style="fill:#fff"></circle><path d="M520.66,158.62l3.9-5.78.35.23-3.76,5.87Zm-7.78-8.42c-.1-.17-.19-.34-.28-.52l6.14-3.28.2.36ZM532,162.78l.77-6.92.43,0-.64,6.94Zm-22.33-24.16c0-.2,0-.39,0-.58l7-.07v.42Zm34.26,22.6-2.54-6.49.39-.16,2.78,6.4-.16.06Zm-31.77-34.36.26-.53,6.21,3.17-.19.37Zm36.4,22.82c.08-.1.17-.2.25-.31l5.38,4.43c-.12.16-.25.31-.38.46Zm-24.58-26.49-4.14-5.61.46-.33,4,5.68Zm28.52,18.75.09-.42,6.82,1.46c0,.19-.09.37-.13.56ZM532,119.83l-1.07-6.89.55-.08.95,6.91Zm20.39,13.41c0-.13-.07-.26-.11-.39l6.7-1.91c.06.19.11.38.16.57Zm-11.73-12.65,2.25-6.59.57.2L541,120.73Zm7.61,5-.29-.31,5.06-4.79.4.42Z"></path><path d="M534.37,139.43h-.07a.5.5,0,0,1-.36-.24l-7-12.06a.49.49,0,0,1,.18-.68.51.51,0,0,1,.69.18l6.68,11.5,10.88-10.58a.5.5,0,0,1,.69.72l-11.33,11A.52.52,0,0,1,534.37,139.43Z"></path><path d="M536.41,139.48a2.19,2.19,0,1,1-.2-3.09A2.19,2.19,0,0,1,536.41,139.48Z"></path><path d="M515.16,118.9a29.35,29.35,0,0,1,41.51.62,29,29,0,0,1,6.22,9.62,29.35,29.35,0,1,0-55.38,19.27A29.35,29.35,0,0,1,515.16,118.9Z" style="opacity:0.30000000000000004"></path></g><g id="freepik--character-1--inject-2"><path d="M240.24,347.49a153.8,153.8,0,0,1,75-251.65L303.9,110.06l19.86,18.16a120.32,120.32,0,0,0-58.65,196.85Z" style="fill:#3C6FE4"></path><path d="M243.55,349.41c1.24-.31,42.22,0,42.22,0l-20.66-24.34-24.87,22.42Z" style="fill:#3C6FE4"></path><g style="opacity:0.30000000000000004"><path d="M240.24,347.49a153.8,153.8,0,0,1,75-251.65L303.9,110.06l19.86,18.16a120.32,120.32,0,0,0-58.65,196.85Z"></path><path d="M243.55,349.41c1.24-.31,42.22,0,42.22,0l-20.66-24.34-24.87,22.42Z"></path></g><path d="M546.13,403.89v-54a3,3,0,0,1,4.77-2.31l34.3,27a2.94,2.94,0,0,1,0,4.63l-34.3,27A3,3,0,0,1,546.13,403.89Z" style="fill:#3C6FE4"></path><rect x="361.01" y="360.86" width="190.69" height="32.09" style="fill:#3C6FE4"></rect><path d="M584.9,374.59l-34.3-27a3,3,0,0,0-4.77,2.31v10.95H352.89V393H545.83v10.94a2.94,2.94,0,0,0,4.77,2.31l34.3-27A2.94,2.94,0,0,0,584.9,374.59Z" style="opacity:0.30000000000000004"></path><path d="M352.85,90.87v32.89a118.18,118.18,0,0,1,0,236.35H141.73V393H352.85c83.3,0,151.07-67.77,151.07-151.06S436.15,90.87,352.85,90.87Z" style="fill:#3C6FE4"></path><path d="M359.24,80.44l-.11,54a2.94,2.94,0,0,1-4.76,2.3l-34.26-27.06a2.94,2.94,0,0,1,0-4.62l34.36-26.92A2.94,2.94,0,0,1,359.24,80.44Z" style="fill:#3C6FE4"></path><path d="M359.22,361.05c.65,0-13.4,8.9-22.9,8.83l-.9,24h-6.28l-12-32.09Z" style="opacity:0.30000000000000004"></path><path d="M347.63,194.91c4.4,7,6,11.17,6.71,18,.8,8,.77,15.08-.93,17.22-2.22,2.8-27.46,6.5-41.69,6.59-.52,0-1.15-4.49-1.15-4.49s-1.81,4.5-2.48,4.5c-3.89,0-6.38,0-6.38,0s2.91-6.76,5.74-30.81c1.38-11.74,12.89-16.94,19.76-18.14C338.66,185.77,347.63,194.91,347.63,194.91Z" style="fill:#263238"></path><path d="M314.88,219c-4-6.26-8.51-23.42,6.74-29.49,19-7.57,28.26,4.37,30.5,16.52s-4.24,21.7-17.06,21.37S317.66,223.32,314.88,219Z" style="fill:#263238"></path><path d="M346.71,242.07s-4.28,3.29-9.8,8a20.37,20.37,0,0,1-3.75,2.56c-3.61,1.92-6.91,3-7.8,1.28a5.75,5.75,0,0,1-.46-1.24c-.76-2.91-.45-7,1.91-8.89,2.66-2.12,3.94-3.93,3.46-6.79a21.21,21.21,0,0,0-1.53-4.93l2.1-2.45,10.94-11C341.5,226,341,238.07,346.71,242.07Z" style="fill:#ebb373"></path><path d="M330.36,237.66c3-1.79,6.31-4.89,5.91-8.43a16.19,16.19,0,0,0-.85-3.81l-6.11,8.1A20.55,20.55,0,0,1,330.36,237.66Z" style="opacity:0.2"></path><path d="M344.87,206.77c-1,11.24-1.22,16-7,21.9-8.73,8.87-22.16,5.88-24.47-5.26-2.08-10,0-26.73,11-31.45C335.25,187.3,345.9,195.52,344.87,206.77Z" style="fill:#ebb373"></path><path d="M330.78,210.84c-.06,1.13-.76,2.06-1.55,2.08s-1.39-.89-1.33-2,.76-2.06,1.55-2.08S330.84,209.71,330.78,210.84Z" style="fill:#263238"></path><path d="M319.09,210.63c-.06,1.08-.74,2-1.52,2s-1.37-.85-1.31-1.93.75-2,1.53-2S319.16,209.55,319.09,210.63Z" style="fill:#263238"></path><path d="M332.37,206.69a.57.57,0,0,1-.44-.09,4.66,4.66,0,0,0-4.09-.65.55.55,0,0,1-.73-.31.62.62,0,0,1,.39-.74,5.83,5.83,0,0,1,5.18.78.53.53,0,0,1,.07.78A.69.69,0,0,1,332.37,206.69Z" style="fill:#263238"></path><path d="M315.12,205.18a.47.47,0,0,1-.27-.3.54.54,0,0,1,.36-.68,5.79,5.79,0,0,1,5.12.5.5.5,0,0,1,.08.74.58.58,0,0,1-.79.11,4.62,4.62,0,0,0-4.06-.35A.6.6,0,0,1,315.12,205.18Z" style="fill:#263238"></path><path d="M335.48,196.77c-3.57,3.76-1.8,17.94,8.24,19.8C355.29,213.85,346.16,185.56,335.48,196.77Z" style="fill:#263238"></path><path d="M322.06,221.13a32.29,32.29,0,0,1,2,4.14c.27-.05.53-.11.79-.18,3.58-.83,5-2.41,5.41-3.89a4.7,4.7,0,0,0,.08-2.25,4.77,4.77,0,0,0-.4-1.22c-1.63,1.58-4.91,2.62-6.68,3.1C322.53,221,322.06,221.13,322.06,221.13Z" style="fill:#263238"></path><path d="M323.27,220.83l.63,1.2c3.37-.79,5.63-1.81,6.45-3.08a4.77,4.77,0,0,0-.4-1.22C328.32,219.31,325,220.35,323.27,220.83Z" style="fill:#fff"></path><path d="M324.86,225.09c3.58-.83,5-2.41,5.41-3.89a11.78,11.78,0,0,0-3.78,1.71A4.44,4.44,0,0,0,324.86,225.09Z" style="fill:#dc5753"></path><path d="M322.24,209.84s-2.11,5.07-4.32,7.55c1.43,1.39,4,.66,4,.66Z" style="fill:#e4873e"></path><path d="M327.21,208.28l2.58.61C328.62,210.21,327.21,208.28,327.21,208.28Z" style="fill:#263238"></path><path d="M315.68,208.17l2.58.61C317.09,210.1,315.68,208.17,315.68,208.17Z" style="fill:#263238"></path><path d="M324.45,189.55c-4.44,1.5-9.15,9.19-9.94,12.14,6.31,1,23.33-4.88,23.33-4.88s11.36,3.14,5.6-2.62S324.45,189.55,324.45,189.55Z" style="fill:#263238"></path><path d="M348.28,215.93a9.1,9.1,0,0,1-5.47,4.25c-3,.74-4.51-4-3.49-7a6,6,0,0,1,6.73-3.88C348.9,209.86,349.79,213.29,348.28,215.93Z" style="fill:#ebb373"></path><path d="M297,235.76l-.27-.41c4.11-2.75,7.53-12.41,9.18-17s2.31-9.73,2.93-14.59l.5.06c-.63,4.89-1.27,9.95-3,14.7S301.22,232.93,297,235.76Z" style="fill:#263238"></path><circle cx="344.01" cy="219.88" r="2.1" style="fill:#3C6FE4"></circle><path d="M341.58,216.14h0a.26.26,0,0,1-.25-.26,3.68,3.68,0,0,1,4.66-3.4.25.25,0,0,1,.17.31.25.25,0,0,1-.31.17,3.22,3.22,0,0,0-2.72.49,3.25,3.25,0,0,0-1.3,2.45A.25.25,0,0,1,341.58,216.14Z" style="opacity:0.1"></path><path d="M258.27,314.45c.55-1.55,4.55-6.73,6.68-8.67s9.66-6.17,9.66-6.17l6.36,6s-.59,3.45-3.15,4.72c-1.47.73-3,1.32-3,1.32a12.55,12.55,0,0,1-.34,2.76c-.38,1.57-1.19,3.43-2.47,3s-.69-4.66-.61-5.27c-.09.62-.81,5-2.57,4.67s-.85-4.78-.85-4.78-.61,2-.93,3.08-1.62,1.7-2.3.28a7.47,7.47,0,0,1-.29-4,36.27,36.27,0,0,0-3.35,3.8C259.6,317.15,257.79,315.76,258.27,314.45Z" style="fill:#ebb373"></path><path d="M271.26,313.26h-.05a.26.26,0,0,1-.2-.3,14.37,14.37,0,0,1,.66-2.43,4.54,4.54,0,0,1,1.53-2.07.25.25,0,0,1,.29.41,4.1,4.1,0,0,0-1.36,1.85,13.72,13.72,0,0,0-.63,2.34A.24.24,0,0,1,271.26,313.26Z" style="opacity:0.1"></path><path d="M267.74,313h-.05a.24.24,0,0,1-.19-.29,13.23,13.23,0,0,1,.65-2.43,4.56,4.56,0,0,1,1.53-2.07.25.25,0,1,1,.29.4,4.2,4.2,0,0,0-1.36,1.86,13.21,13.21,0,0,0-.62,2.34A.26.26,0,0,1,267.74,313Z" style="opacity:0.1"></path><path d="M264.46,311.82h0a.25.25,0,0,1-.2-.3,13.13,13.13,0,0,1,.65-2.42,4.72,4.72,0,0,1,1.53-2.08.25.25,0,0,1,.3.41,4.1,4.1,0,0,0-1.36,1.85,12.85,12.85,0,0,0-.63,2.34A.25.25,0,0,1,264.46,311.82Z" style="opacity:0.1"></path><path d="M308,258.74c0,.71-2,26.22-2,26.22-1.42,2.66-30.63,12.8-34.37,16.51l6.81,7s34.76-7,40.38-11.1c4.78-3.48,4.38-9.58,4.38-17.92s2.91-20,2.91-20Z" style="fill:#ebb373"></path><path d="M321.23,243.67c-13.78,2.36-15.68,22.76-15.68,22.76l-2.09,16.2-7.82,5.7L303,303.94s15.61-5.94,22.47-10,7-35.18,7-35.18Z" style="fill:#3C6FE4"></path><path d="M318.75,296.41c.26.12-5.77,3.48-5.77,3.48S310.8,291,310.73,291a74.21,74.21,0,0,1-1.08-26.95C312.17,269.31,318.12,292,318.75,296.41Z" style="opacity:0.2"></path><path d="M321.78,314.87c11.49-1.15,26.43-2.07,45.87-2.5,0,0,14.5,34.14-2.69,44.34-5.2,3.08-13.77,4.3-23.21,4.5a19.51,19.51,0,0,1-20-19.49Z" style="fill:#263238"></path><path d="M359.33,343v16c-14.3,4.13-44,2.56-61.61,1.12a15.31,15.31,0,0,1-14.06-15.26V331.73a10.45,10.45,0,0,1,6.79-9.8c8.55-3.22,24.11-8,40.39-7.76A28.86,28.86,0,0,1,359.33,343Z" style="fill:#263238"></path><path d="M370.24,312.36c-2.22-2.93-7.37-9.94-8-17.32V295c0-.47-.07-1-.07-1.42-.11-3.14-.09-6.86.11-11.32,0-.69.07-1.43.11-2.17.13-2.34.31-4.86.53-7.6.42-4.92,1-10.53,1.83-16.91.18-1.47,1.57-3.76,1.78-5.32.93-7-5.4-12-12.24-11.69-1.82.07-3.76.19-5.72.39a145.74,145.74,0,0,0-20.64,3c-2.21.52-4.5,1.15-6.68,1.77-7.86,2.26-11.48,12.31-11.58,20.4-.09,7.54,5.19,22.93,8.82,36.45.53,7.75-3.7,12-2.43,14.68s38.76-4.64,54.2,4.57C370.24,319.77,372.61,315.49,370.24,312.36Z" style="fill:#3C6FE4"></path><path d="M370.24,312.36c-2.22-2.93-7.37-9.94-8-17.32V295c0-.47-.07-1-.07-1.42-.11-3.14-.09-6.86.11-11.32,0-.69.07-1.43.11-2.17.13-2.34.31-4.86.53-7.6.42-4.92,1-10.53,1.83-16.91.18-1.47,1.57-3.76,1.78-5.32.93-7-5.4-12-12.24-11.69-1.82.07-3.76.19-5.72.39a145.74,145.74,0,0,0-20.64,3c-2.21.52-4.5,1.15-6.68,1.77-7.86,2.26-11.48,12.31-11.58,20.4-.09,7.54,5.19,22.93,8.82,36.45.53,7.75-3.7,12-2.43,14.68s38.76-4.64,54.2,4.57C370.24,319.77,372.61,315.49,370.24,312.36Z" style="fill:#fff;opacity:0.30000000000000004"></path><path d="M364.27,302.57s-13.23,2.9-19.38,3.18-19.47,4.48-19.47,4.48l-4.74,2.94L319,309.26l8-7.21,35-7.1A39.69,39.69,0,0,0,364.27,302.57Z" style="opacity:0.2"></path><polygon points="349.12 259 347.45 281.62 339.95 288.97 345.2 293.05 352.34 288.74 356.03 276.02 349.12 259" style="opacity:0.2"></polygon><path d="M292.56,465.44l17.56-7.74,5.55-6.2,1.72,2.33,2.09-.91c1-7.79-2.8-11.44-4.79-13.09-.14-.13-.35-.27-.58-.46a1.77,1.77,0,0,0-.24-.17l-.09-.07c-.08-.06-.18-.12-.27-.2s0,0-.07,0v0l-.15-.09L303.65,443s-.16.51-.46,1.33c-1,2.71-3.34,8.89-6,12.19l-.34.41a6.93,6.93,0,0,1-1,1C288.53,463.88,292.56,465.44,292.56,465.44Z" style="fill:#263238"></path><path d="M296.85,456.92c2.74,1.08,6.62-1.64,9.57-5.19a52.24,52.24,0,0,0,4.65-7.79,17.27,17.27,0,0,1,2.48-3.77c.41-.36.79-.52,1.12-.36a0,0,0,0,1,0,0c-.14-.13-.34-.27-.58-.46a1.91,1.91,0,0,0-.24-.17l-.09-.06-.27-.21-.06,0v0l-.16-.09c-1-.76-2.13-1.53-2.13-1.53l-9.06,2.27.7,3.47c-1,3.58-3.14,10.39-5.58,13.56C297.07,456.65,297,456.8,296.85,456.92Z" style="fill:#ebb373"></path><path d="M282.09,389.42c5.6,13.9,14.29,31.61,20.7,53.82.12.4.24.81.35,1.21s.25.85.37,1.28l6.63-1.61.29-1.15s2.28-1.78,1.89-2.18-.08-.76-.12-1.18h0c-1.79-15.49-8.66-72.34-15.48-84.15,0,0,7.73,1.44,13.58.45,4.23-.71,9.34-29.92,9.34-29.92a90.22,90.22,0,0,0-21.8-3.09h-.15s-21.71,6.42-27.22,11.28c-5.19,4.57-6,12.06-3.09,21C270,363.28,275.16,372.2,282.09,389.42Z" style="fill:#ebb373"></path><path d="M275.89,341.19c1.28-5.05,10.58-10,20.19-12.63,1.56-2-2.43-4.41-2.43-4.41l18.91-1.71,3.3,2.37L321.5,326l-5,22.59-20.65,3.62,13.06,60.63,1.55,12s-22.14-47.5-26.77-57.6S273.66,350,275.89,341.19Z" style="opacity:0.1"></path><path d="M319.65,326s-29.51,6.25-35.28,10.8c-4.9,3.88-5,8.94-3.45,13.72,4.4,13.21,20.18,35.24,38.24,98.47l10.35-3.25c-1,0-3.59-33-4.36-59.53-.36-12.5-6.78-23.29-9.29-27.64,0,0,10.55,1.42,16.4.44C339.78,357.74,344.54,332.64,319.65,326Z" style="fill:#ebb373"></path><path d="M316.47,359.74s-3.91-6.49-8.8-9.23c0,0,6,.39,9.77,8.23l-1.58-.18Z" style="opacity:0.2"></path><path d="M333,459.35l-2.15.47-1.8-3a.66.66,0,0,0-1-.15l-6.13,5.68L305.18,466s-3.73-3.94,4.59-6.45a3.59,3.59,0,0,0,1.12-.73C315,455.7,320,447,320,447l9.92-2.17a13.25,13.25,0,0,1,1.12,1.25C332.55,448,335.43,452.18,333,459.35Z" style="fill:#263238"></path><path d="M331,446.07v0c-1.63-1.17-6.18,6.55-10.07,9.69-3.47,2.79-7.66,4.61-10,3.07,4.12-3.16,9.28-14.14,9.28-14.14l8-1.75S330.32,445.24,331,446.07Z" style="fill:#ebb373"></path><path d="M300.6,330.26l29.09-11.06a.68.68,0,0,0-.2-1.3l-46.69-.56a.55.55,0,0,0-.32.1l-18,11.62a.68.68,0,0,0,.31,1.24h35.55A.52.52,0,0,0,300.6,330.26Z" style="fill:#263238"></path><path d="M300.6,330.26l29.09-11.06a.68.68,0,0,0-.2-1.3l-46.69-.56a.55.55,0,0,0-.32.1l-18,11.62a.68.68,0,0,0,.31,1.24h35.55A.52.52,0,0,0,300.6,330.26Z" style="fill:#fff;opacity:0.7000000000000001"></path><polygon points="300.7 326.96 319.46 320.05 297.48 319.59 300.7 326.96" style="fill:#fff;opacity:0.7000000000000001"></polygon><path d="M329.69,319.2,300.6,330.26a.52.52,0,0,1-.21,0h-.45l-.55-1.6,30.1-10.8A.68.68,0,0,1,329.69,319.2Z" style="opacity:0.30000000000000004"></path><path d="M262.62,330.3H300.5a1.07,1.07,0,0,0,1.17-1,.75.75,0,0,0-.06-.29l-16.85-38.63a3.28,3.28,0,0,0-3.13-1.86h-37.9a1.05,1.05,0,0,0-1.16.93.91.91,0,0,0,.06.32l16.86,38.63A3.3,3.3,0,0,0,262.62,330.3Z" style="fill:#263238"></path><path d="M243.73,288.56h37.9a3.28,3.28,0,0,1,3.13,1.86l16.85,38.63a.75.75,0,0,1,.06.29,1.07,1.07,0,0,1-1.17,1H262.62a3.33,3.33,0,0,1-3.14-1.86l-16.85-38.63a.91.91,0,0,1-.06-.32A1.05,1.05,0,0,1,243.73,288.56Z" style="fill:#fff;opacity:0.7000000000000001"></path><path d="M267.2,310.29c.82,1.85,2.48,3.13,3.71,2.87s1.57-2,.78-3.81-2.48-3.1-3.71-2.84S266.37,308.39,267.2,310.29Z" style="fill:#fff"></path><path d="M281.4,288.56h.23a3.28,3.28,0,0,1,3.13,1.86l16.85,38.63a.75.75,0,0,1,.06.29,1.07,1.07,0,0,1-1.17,1h-1.22Z" style="opacity:0.30000000000000004"></path><path d="M349.85,256.87c0,.71,2.28,26,2.28,26-1.42,2.66-30.63,12.8-34.37,16.52l6.81,7s34.76-7,40.37-11.09c4.79-3.48,4.39-9.59,4.39-17.93a173.52,173.52,0,0,0-1.82-20.48Z" style="fill:#ebb373"></path><path d="M352.8,241.28c-7.18,3-1.7,41.42-1.7,41.42l-7.06,3,4.34,16.36s8.7-1.65,17.39-3.43c9.19-1.87,10.54-23.08,5.94-40.26S361.2,237.77,352.8,241.28Z" style="fill:#3C6FE4"></path><path d="M305.56,317.75c.16-1.64,2.76-7.65,4.35-10s7.85-8.35,7.85-8.35l7.65,4.27s.26,3.49-1.9,5.35c-1.25,1.07-2.59,2-2.59,2a12.28,12.28,0,0,1,.36,2.76c0,1.62-.32,3.61-1.65,3.55s-1.82-4.34-1.89-5c.07.62.43,5-1.35,5.16s-2-4.42-2-4.42-.09,2.13-.14,3.22-1.15,2-2.16.82a7.45,7.45,0,0,1-1.27-3.83,35.63,35.63,0,0,0-2.31,4.51C307.51,320,305.42,319.14,305.56,317.75Z" style="fill:#ebb373"></path><path d="M317.8,313.42a.26.26,0,0,1-.25-.24,13.3,13.3,0,0,1,0-2.52,4.59,4.59,0,0,1,1-2.38.25.25,0,0,1,.38.32,4.16,4.16,0,0,0-.86,2.13,13.06,13.06,0,0,0,0,2.42.26.26,0,0,1-.24.27Z" style="opacity:0.1"></path><path d="M314.32,314a.26.26,0,0,1-.25-.24,14.18,14.18,0,0,1,0-2.52,4.68,4.68,0,0,1,1-2.38.25.25,0,0,1,.38.32,4.16,4.16,0,0,0-.86,2.13,13.06,13.06,0,0,0,0,2.42.26.26,0,0,1-.24.27Z" style="opacity:0.1"></path><path d="M310.85,313.69a.25.25,0,0,1-.25-.23,13.28,13.28,0,0,1,0-2.52,4.66,4.66,0,0,1,1-2.39.26.26,0,1,1,.39.33,4.1,4.1,0,0,0-.87,2.13,13,13,0,0,0,0,2.42.24.24,0,0,1-.23.26Z" style="opacity:0.1"></path></g><g id="freepik--light-bulb--inject-2"><circle cx="106.99" cy="364.78" r="57.09" style="fill:#fff"></circle><path d="M107,422.38a57.6,57.6,0,1,1,57.6-57.6A57.66,57.66,0,0,1,107,422.38Zm0-114.19a56.6,56.6,0,1,0,56.6,56.59A56.66,56.66,0,0,0,107,308.19Z" style="fill:#263238"></path><path d="M117.81,401.27c0,3.73-5.18,6.72-11.49,6.62S95,404.74,95,401s5.18-6.72,11.48-6.6S117.86,397.55,117.81,401.27Z" style="fill:#263238"></path><path d="M122.74,389a3.36,3.36,0,0,0,1-2.24c0-3.66-7.69-6.72-17.28-6.81s-17.39,2.76-17.44,6.41a3.36,3.36,0,0,0,1,2.24,2.75,2.75,0,0,0-.3,1.12,3.13,3.13,0,0,0,1,2.24,2.51,2.51,0,0,0-.33,1.19,3.15,3.15,0,0,0,1,2.24,2.33,2.33,0,0,0-.35,1.21,3,3,0,0,0,1.12,2.17,2.34,2.34,0,0,0-.38,1.22c0,3,6.39,5.6,14.36,5.67s14.46-2.24,14.49-5.34a2.29,2.29,0,0,0-.35-1.23,3.06,3.06,0,0,0,1.12-2.15,2.55,2.55,0,0,0-.33-1.21,3.19,3.19,0,0,0,1.12-2.18,2.59,2.59,0,0,0-.3-1.19,3.23,3.23,0,0,0,1.12-2.19A2.83,2.83,0,0,0,122.74,389Z" style="fill:#263238"></path><path d="M137.12,356.72a30.72,30.72,0,1,0-50.46,23.17,5.08,5.08,0,0,1,1.81,4.39,1,1,0,0,0,0,.25c0,3.71,7.84,6.81,17.56,6.92s17.66-2.81,17.7-6.53v-.23a5.11,5.11,0,0,1,1.92-4.45A30.65,30.65,0,0,0,137.12,356.72Z" style="fill:#3C6FE4"></path><path d="M83,368.54a.51.51,0,0,1-.44-.25A24.11,24.11,0,0,1,87,338.51a.5.5,0,0,1,.71,0,.5.5,0,0,1,0,.7,23.11,23.11,0,0,0-4.21,28.55.49.49,0,0,1-.18.68A.47.47,0,0,1,83,368.54Z" style="fill:#fff"></path><path d="M92.21,398.82a37.54,37.54,0,0,0,28.07.34,34.85,34.85,0,0,1-28.07-.34Z" style="fill:#263238"></path><path d="M92,395.53a37.61,37.61,0,0,0,28.06.34A34.91,34.91,0,0,1,92,395.53Z" style="fill:#263238"></path><path d="M91.8,392.23a37.56,37.56,0,0,0,28.06.34,34.87,34.87,0,0,1-28.06-.34Z" style="fill:#263238"></path><path d="M115.32,385.09a103.63,103.63,0,0,1-3.9-12.7,7.05,7.05,0,0,1-5,2,7.28,7.28,0,0,1-4.1-1.71,53.54,53.54,0,0,1-2.09,12.39l-1-.28a52.42,52.42,0,0,0,2.08-12.94c-.22-.21-.45-.43-.67-.67-3.44-3.58-5-8-4.3-11.87.28-1.46,1.14-2.91,2.51-2.89,1.22,0,2.12,1.23,2.53,3.38a54,54,0,0,1,.95,11.62,6.86,6.86,0,0,0,4.09,2,6.7,6.7,0,0,0,4.69-2.13c-.75-3.3-1.35-6.66-1.78-10a10.25,10.25,0,0,1,0-3.58,3.39,3.39,0,0,1,2.34-2.74c1.9-.4,3.44,1.62,4,3.83a14.43,14.43,0,0,1-3.36,12.76l-.08.08a103.64,103.64,0,0,0,4,13.16ZM98.85,357.43c-.71,0-1.28,1-1.48,2.08-.69,3.53.82,7.63,4,11a52.79,52.79,0,0,0-.94-10.48c-.11-.59-.57-2.54-1.58-2.57Zm13.34-1.57-.26,0a2.51,2.51,0,0,0-1.58,2,9.48,9.48,0,0,0,0,3.23q.6,4.69,1.61,9.28A13.63,13.63,0,0,0,114.72,359C114.34,357.37,113.31,355.86,112.19,355.86Z" style="fill:#263238"></path></g></svg>
